<?xml version="1.0" encoding="UTF-8" standalone="no"?>
<svg
   xmlns:dc="http://purl.org/dc/elements/1.1/"
   xmlns:cc="http://creativecommons.org/ns#"
   xmlns:rdf="http://www.w3.org/1999/02/22-rdf-syntax-ns#"
   xmlns:svg="http://www.w3.org/2000/svg"
   xmlns="http://www.w3.org/2000/svg"
   xmlns:sodipodi="http://sodipodi.sourceforge.net/DTD/sodipodi-0.dtd"
   xmlns:inkscape="http://www.inkscape.org/namespaces/inkscape"
   version="1.1"
   width="70.8661"
   height="70.8661"
   id="svg30"
   sodipodi:docname="Adesivo mini logo 25X25 MM2.svg"
   inkscape:version="0.92.4 (5da689c313, 2019-01-14)"
   inkscape:export-filename="C:\Users\jonat\Documents\Docs\ID Cotton\icon-transparent.png"
   inkscape:export-xdpi="1132"
   inkscape:export-ydpi="1132">
  <metadata
     id="metadata36">
    <rdf:RDF>
      <cc:Work
         rdf:about="">
        <dc:format>image/svg+xml</dc:format>
        <dc:type
           rdf:resource="http://purl.org/dc/dcmitype/StillImage" />
        <dc:title></dc:title>
      </cc:Work>
    </rdf:RDF>
  </metadata>
  <defs
     id="defs34" />
  <sodipodi:namedview
     pagecolor="#ffffff"
     bordercolor="#666666"
     borderopacity="1"
     objecttolerance="10"
     gridtolerance="10"
     guidetolerance="10"
     inkscape:pageopacity="0"
     inkscape:pageshadow="2"
     inkscape:window-width="1920"
     inkscape:window-height="1027"
     id="namedview32"
     showgrid="false"
     inkscape:zoom="8.5811391"
     inkscape:cx="29.534743"
     inkscape:cy="31.303051"
     inkscape:window-x="1358"
     inkscape:window-y="-8"
     inkscape:window-maximized="1"
     inkscape:current-layer="svg30" />
  <g
     id="g72"
     transform="translate(-2.4472275,-4.3117814)"
     inkscape:export-xdpi="1463.9731"
     inkscape:export-ydpi="1463.9731"
     style="fill:#77933f;fill-opacity:0.94117647">
    <g
       transform="translate(2.4472276,6.8755441)"
       inkscape:export-ydpi="1132.52"
       inkscape:export-xdpi="1132.52"
       id="Layer1000"
       style="fill:#77933f;fill-opacity:0.94117647">
      <path
         inkscape:connector-curvature="0"
         id="path16"
         style="fill:#77933f;fill-rule:evenodd;fill-opacity:0.94117647"
         d="m 42.4884,20.2098 c -1.9003,-1.6893 -4.4031,-2.7155 -7.1457,-2.7155 -2.7379,0 -5.237,1.0227 -7.1361,2.707 l 2.7562,1.7654 c 1.2413,-0.8665 2.7513,-1.3747 4.3799,-1.3747 1.6334,0 3.1474,0.5112 4.3908,1.3823 z" />
      <path
         inkscape:connector-curvature="0"
         id="path18"
         style="fill:#77933f;fill-rule:evenodd;fill-opacity:0.94117647"
         d="m 35.3427,16.422 c 3.1242,0 5.9656,1.211 8.0803,3.1891 l 2.7138,-1.7382 c -2.7245,-2.8325 -6.5535,-4.5952 -10.7941,-4.5952 -4.2361,0 -8.0614,1.7589 -10.7854,4.5862 l 2.7143,1.7385 c 2.1138,-1.973 4.9515,-3.1804 8.0711,-3.1804 z" />
      <path
         inkscape:connector-curvature="0"
         id="path20"
         style="fill:#77933f;fill-rule:evenodd;fill-opacity:0.94117647"
         d="m 35.3427,12.3383 c 4.5738,0 8.6968,1.9293 11.5998,5.0186 l 2.6594,-1.7033 C 46.1156,11.711 41.0194,9.2251 35.3427,9.2251 c -5.6723,0 -10.7648,2.482 -14.2509,6.4192 l 2.6597,1.7035 c 2.9025,-3.084 7.022,-5.0095 11.5912,-5.0095 z" />
      <g
         id="Layer1001"
         style="fill:#77933f;fill-opacity:0.94117647">
        <path
           inkscape:connector-curvature="0"
           id="path22"
           style="fill:#77933f;fill-rule:evenodd;fill-opacity:0.94117647"
           d="m 19.4275,19.625 c 1.8377,0 3.5805,0.4037 5.1451,1.1258 -0.8373,-0.159 -1.7045,-0.2428 -2.593,-0.2428 -7.036,0 -12.7399,5.2395 -12.7399,11.7026 0,6.2547 5.3421,11.3632 12.0637,11.6861 -0.6116,0.0936 -1.2381,0.1423 -1.8759,0.1423 -6.7678,0 -12.2541,-5.4653 -12.2541,-12.207 0,-6.7417 5.4863,-12.207 12.2541,-12.207 z" />
        <path
           inkscape:connector-curvature="0"
           id="path24"
           style="fill:#77933f;fill-rule:evenodd;fill-opacity:0.94117647"
           d="m 51.2667,19.625 c -1.8377,0 -3.5806,0.4037 -5.1451,1.1258 0.8372,-0.159 1.7044,-0.2428 2.593,-0.2428 7.036,0 12.7399,5.2395 12.7399,11.7026 0,6.2547 -5.342,11.3632 -12.0637,11.6861 0.6116,0.0936 1.2381,0.1423 1.8759,0.1423 6.7677,0 12.254,-5.4653 12.254,-12.207 0,-6.7417 -5.4863,-12.207 -12.254,-12.207 z" />
      </g>
      <path
         inkscape:connector-curvature="0"
         id="path27"
         style="fill:#77933f;fill-rule:evenodd;fill-opacity:0.94117647"
         d="m 33.4649,47.2994 -0.0052,5.0843 1.8878,-0.0011 1.8878,0.0011 -0.0052,-5.0843 c 7.0546,-0.1891 13.6056,-4.0433 14.9195,-11.4391 -8.5618,0.9678 -11.8392,3.0296 -15.0123,7.8275 2.9744,-4.7389 2.5867,-11.6497 -1.3488,-16.2621 l -0.3921,-0.3663 -0.0489,0.0489 -0.049,-0.0489 -0.392,0.3663 c -3.9355,4.6124 -4.3233,11.5232 -1.3488,16.2621 -3.1731,-4.7979 -6.4506,-6.8597 -15.0124,-7.8275 1.3139,7.3958 7.865,11.25 14.9196,11.4391 z" />
    </g>
  </g>
  <text
     x="4.1055732"
     y="63.799458"
     id="text6"
     inkscape:export-xdpi="1463.9731"
     inkscape:export-ydpi="1463.9731"
     style="fill:#77933f;fill-opacity:0.94117647;">
    <tspan
       font-size="11.0000"
       id="tspan4"
       style="font-size:11px;font-family:'Square721 BT';fill:#77933f;fill-opacity:0.94117647;">ID-COTTON</tspan>
  </text>
</svg>
